<svg xmlns="http://www.w3.org/2000/svg" width="1024" height="1024" viewBox="0 0 260 260">
<defs>
<linearGradient id="bg" x1="0" y1="0" x2="1" y2="1"><stop offset="0%" stop-color="#2C6975"/><stop offset="100%" stop-color="#1A4F5A"/></linearGradient>
<linearGradient id="sl" x1="0" y1="0" x2="1" y2="1"><stop offset="0%" stop-color="#A8B8F0"/><stop offset="100%" stop-color="#7B8FE8"/></linearGradient>
<linearGradient id="nu" x1="0" y1="1" x2="1" y2="0"><stop offset="0%" stop-color="#50C878"/><stop offset="100%" stop-color="#8AEDB0"/></linearGradient>
<linearGradient id="yg" x1="0.5" y1="0" x2="0.5" y2="1"><stop offset="0%" stop-color="#E8C96E"/><stop offset="100%" stop-color="#D4A853"/></linearGradient>
<linearGradient id="gUp" x1="0" y1="1" x2="0" y2="0"><stop offset="0%" stop-color="#D4A853"/><stop offset="100%" stop-color="#E8C96E"/></linearGradient>
<linearGradient id="gDn" x1="0" y1="0" x2="0" y2="1"><stop offset="0%" stop-color="#D4A853"/><stop offset="100%" stop-color="#C49A42"/></linearGradient>
<linearGradient id="gRt" x1="0" y1="0" x2="1" y2="0"><stop offset="0%" stop-color="#D4A853"/><stop offset="100%" stop-color="#E8C96E"/></linearGradient>
<linearGradient id="gLt" x1="1" y1="0" x2="0" y2="0"><stop offset="0%" stop-color="#D4A853"/><stop offset="100%" stop-color="#C49A42"/></linearGradient>
</defs>
<!-- Background -->
<rect x="0" y="0" width="260" height="260" rx="58" fill="url(#bg)"/>
<!-- Outer border -->
<rect x="10" y="10" width="240" height="240" rx="52" fill="none" stroke="#D4A853" stroke-width="1.2" opacity="0.45"/>
<!-- Inscribed zigzag between borders -->
<g opacity="0.3" fill="none" stroke="#D4A853" stroke-width="0.7">
<line x1="56" y1="11" x2="50" y2="21"/><line x1="68" y1="11" x2="62" y2="21"/><line x1="80" y1="11" x2="74" y2="21"/>
<line x1="92" y1="11" x2="86" y2="21"/><line x1="104" y1="11" x2="98" y2="21"/><line x1="116" y1="11" x2="110" y2="21"/>
<line x1="128" y1="10.5" x2="122" y2="21"/><line x1="140" y1="11" x2="134" y2="21"/><line x1="152" y1="11" x2="146" y2="21"/>
<line x1="164" y1="11" x2="158" y2="21"/><line x1="176" y1="11" x2="170" y2="21"/><line x1="188" y1="11" x2="182" y2="21"/>
<line x1="200" y1="11.5" x2="194" y2="21"/>
<line x1="56" y1="249" x2="50" y2="239"/><line x1="68" y1="249" x2="62" y2="239"/><line x1="80" y1="249" x2="74" y2="239"/>
<line x1="92" y1="249" x2="86" y2="239"/><line x1="104" y1="249" x2="98" y2="239"/><line x1="116" y1="249" x2="110" y2="239"/>
<line x1="128" y1="249.5" x2="122" y2="239"/><line x1="140" y1="249" x2="134" y2="239"/><line x1="152" y1="249" x2="146" y2="239"/>
<line x1="164" y1="249" x2="158" y2="239"/><line x1="176" y1="249" x2="170" y2="239"/><line x1="188" y1="249" x2="182" y2="239"/>
<line x1="200" y1="248.5" x2="194" y2="239"/>
<line x1="11" y1="56" x2="21" y2="50"/><line x1="11" y1="68" x2="21" y2="62"/><line x1="11" y1="80" x2="21" y2="74"/>
<line x1="11" y1="92" x2="21" y2="86"/><line x1="11" y1="104" x2="21" y2="98"/><line x1="11" y1="116" x2="21" y2="110"/>
<line x1="10.5" y1="128" x2="21" y2="122"/><line x1="11" y1="140" x2="21" y2="134"/><line x1="11" y1="152" x2="21" y2="146"/>
<line x1="11" y1="164" x2="21" y2="158"/><line x1="11" y1="176" x2="21" y2="170"/><line x1="11" y1="188" x2="21" y2="182"/>
<line x1="11.5" y1="200" x2="21" y2="194"/>
<line x1="249" y1="56" x2="239" y2="50"/><line x1="249" y1="68" x2="239" y2="62"/><line x1="249" y1="80" x2="239" y2="74"/>
<line x1="249" y1="92" x2="239" y2="86"/><line x1="249" y1="104" x2="239" y2="98"/><line x1="249" y1="116" x2="239" y2="110"/>
<line x1="249.5" y1="128" x2="239" y2="122"/><line x1="249" y1="140" x2="239" y2="134"/><line x1="249" y1="152" x2="239" y2="146"/>
<line x1="249" y1="164" x2="239" y2="158"/><line x1="249" y1="176" x2="239" y2="170"/><line x1="249" y1="188" x2="239" y2="182"/>
<line x1="248.5" y1="200" x2="239" y2="194"/>
</g>
<!-- Inner border -->
<rect x="22" y="22" width="216" height="216" rx="48" fill="none" stroke="#D4A853" stroke-width="1.8" opacity="0.5"/>
<!-- Ornate compass arrows: North (bright) -->
<g opacity="0.85">
<path d="M130,26 L126,38 L128.5,38 L128.5,52 L131.5,52 L131.5,38 L134,38 Z" fill="url(#gUp)"/>
<polygon points="130,22 127,28 130,26 133,28" fill="#E8C96E"/>
<rect x="127" y="52" width="6" height="2" rx="0.5" fill="#D4A853" opacity="0.6"/>
<circle cx="130" cy="55" r="1.5" fill="#E8C96E" opacity="0.7"/>
</g>
<!-- South -->
<g opacity="0.5">
<path d="M130,234 L126,222 L128.5,222 L128.5,208 L131.5,208 L131.5,222 L134,222 Z" fill="url(#gDn)"/>
<polygon points="130,238 127,232 130,234 133,232" fill="#D4A853"/>
<rect x="127" y="206" width="6" height="2" rx="0.5" fill="#D4A853" opacity="0.4"/>
<circle cx="130" cy="205" r="1.5" fill="#D4A853" opacity="0.5"/>
</g>
<!-- East -->
<g opacity="0.5">
<path d="M234,130 L222,126 L222,128.5 L208,128.5 L208,131.5 L222,131.5 L222,134 Z" fill="url(#gRt)"/>
<polygon points="238,130 232,127 234,130 232,133" fill="#E8C96E"/>
<rect x="206" y="127" width="2" height="6" rx="0.5" fill="#D4A853" opacity="0.4"/>
<circle cx="205" cy="130" r="1.5" fill="#D4A853" opacity="0.5"/>
</g>
<!-- West -->
<g opacity="0.5">
<path d="M26,130 L38,126 L38,128.5 L52,128.5 L52,131.5 L38,131.5 L38,134 Z" fill="url(#gLt)"/>
<polygon points="22,130 28,127 26,130 28,133" fill="#D4A853"/>
<rect x="52" y="127" width="2" height="6" rx="0.5" fill="#D4A853" opacity="0.4"/>
<circle cx="55" cy="130" r="1.5" fill="#D4A853" opacity="0.5"/>
</g>
<!-- Diagonal intercardinals -->
<g opacity="0.3">
<path d="M192,60 L186,66 L187,65 L181,71 L183,73 L189,67 L188,68 Z" fill="#D4A853"/><circle cx="180" cy="74" r="1.2" fill="#D4A853"/>
<path d="M68,60 L74,66 L73,65 L79,71 L77,73 L71,67 L72,68 Z" fill="#D4A853"/><circle cx="80" cy="74" r="1.2" fill="#D4A853"/>
<path d="M192,200 L186,194 L187,195 L181,189 L183,187 L189,193 L188,192 Z" fill="#D4A853"/><circle cx="180" cy="186" r="1.2" fill="#D4A853"/>
<path d="M68,200 L74,194 L73,195 L79,189 L77,187 L71,193 L72,192 Z" fill="#D4A853"/><circle cx="80" cy="186" r="1.2" fill="#D4A853"/>
</g>
<!-- Clock labels (inward, overlaying arrows) -->
<text x="130" y="48" text-anchor="middle" font-family="-apple-system,Helvetica,Arial,sans-serif" font-size="7" fill="#E8C96E" font-weight="700" opacity="0.9">12AM</text>
<text x="203" y="133" text-anchor="start" font-family="-apple-system,Helvetica,Arial,sans-serif" font-size="7" fill="#E8C96E" font-weight="700" opacity="0.7">6AM</text>
<text x="130" y="218" text-anchor="middle" font-family="-apple-system,Helvetica,Arial,sans-serif" font-size="7" fill="#D4A853" font-weight="700" opacity="0.7">12PM</text>
<text x="57" y="133" text-anchor="end" font-family="-apple-system,Helvetica,Arial,sans-serif" font-size="7" fill="#D4A853" font-weight="700" opacity="0.7">6PM</text>
<!-- 12 lotus petals -->
<g opacity="0.22" fill="none" stroke="#D4A853" stroke-width="0.8">
<ellipse cx="130" cy="60" rx="7" ry="4.5" transform="rotate(0,130,130)"/><ellipse cx="130" cy="60" rx="7" ry="4.5" transform="rotate(30,130,130)"/>
<ellipse cx="130" cy="60" rx="7" ry="4.5" transform="rotate(60,130,130)"/><ellipse cx="130" cy="60" rx="7" ry="4.5" transform="rotate(90,130,130)"/>
<ellipse cx="130" cy="60" rx="7" ry="4.5" transform="rotate(120,130,130)"/><ellipse cx="130" cy="60" rx="7" ry="4.5" transform="rotate(150,130,130)"/>
<ellipse cx="130" cy="60" rx="7" ry="4.5" transform="rotate(180,130,130)"/><ellipse cx="130" cy="60" rx="7" ry="4.5" transform="rotate(210,130,130)"/>
<ellipse cx="130" cy="60" rx="7" ry="4.5" transform="rotate(240,130,130)"/><ellipse cx="130" cy="60" rx="7" ry="4.5" transform="rotate(270,130,130)"/>
<ellipse cx="130" cy="60" rx="7" ry="4.5" transform="rotate(300,130,130)"/><ellipse cx="130" cy="60" rx="7" ry="4.5" transform="rotate(330,130,130)"/>
</g>
<!-- OUTER RING: Sleep 10PM-6AM (gold track + lavender arc) -->
<circle cx="130" cy="130" r="72" fill="none" stroke="rgba(212,168,83,0.12)" stroke-width="8"/>
<circle cx="130" cy="130" r="72" fill="none" stroke="url(#sl)" stroke-width="8" stroke-dasharray="150.8 301.6" stroke-linecap="round" transform="rotate(240,130,130)" opacity="0.95"/>
<!-- Moon at ~2AM -->
<g transform="translate(168,65)"><path d="M0,-6 A6,6 0 1,1 0,6 A4.5,4.5 0 0,0 0,-6Z" fill="rgba(255,255,255,0.55)"/></g>
<!-- INNER RING: Nutrition 7:30AM-8:30PM (gold track + green arc) -->
<circle cx="130" cy="130" r="54" fill="none" stroke="rgba(212,168,83,0.12)" stroke-width="6"/>
<circle cx="130" cy="130" r="54" fill="none" stroke="url(#nu)" stroke-width="6" stroke-dasharray="183.8 155.5" stroke-linecap="round" transform="rotate(22.5,130,130)" opacity="0.95"/>
<!-- Sun at ~2PM (gold) -->
<g transform="translate(130,192)">
<circle cx="0" cy="0" r="5" fill="#D4A853" opacity="0.45"/>
<g stroke="#D4A853" stroke-width="1.2" stroke-linecap="round" opacity="0.35">
<line x1="0" y1="-9" x2="0" y2="-7"/><line x1="0" y1="7" x2="0" y2="9"/>
<line x1="-9" y1="0" x2="-7" y2="0"/><line x1="7" y1="0" x2="9" y2="0"/>
<line x1="-6.4" y1="-6.4" x2="-5" y2="-5"/><line x1="5" y1="5" x2="6.4" y2="6.4"/>
<line x1="6.4" y1="-6.4" x2="5" y2="-5"/><line x1="-5" y1="5" x2="-6.4" y2="6.4"/>
</g>
</g>
<!-- Sri Yantra triangles (gold) -->
<polygon points="130,80 90,156 170,156" fill="none" stroke="url(#yg)" stroke-width="2.2" opacity="0.95"/>
<polygon points="130,90 100,149 160,149" fill="none" stroke="#D4A853" stroke-width="1.3" opacity="0.5"/>
<polygon points="130,180 90,104 170,104" fill="none" stroke="url(#yg)" stroke-width="2.2" opacity="0.95"/>
<polygon points="130,170 100,111 160,111" fill="none" stroke="#D4A853" stroke-width="1.3" opacity="0.5"/>
<!-- Vertex circles -->
<circle cx="130" cy="80" r="2" fill="#E8C96E" opacity="0.6"/>
<circle cx="90" cy="156" r="2" fill="#D4A853" opacity="0.5"/>
<circle cx="170" cy="156" r="2" fill="#D4A853" opacity="0.5"/>
<circle cx="130" cy="180" r="2" fill="#50C878" opacity="0.5"/>
<circle cx="90" cy="104" r="2" fill="#50C878" opacity="0.5"/>
<circle cx="170" cy="104" r="2" fill="#50C878" opacity="0.5"/>
<!-- Bindu with NW -->
<circle cx="130" cy="130" r="18" fill="rgba(212,168,83,0.08)" stroke="#E8C96E" stroke-width="1.5" opacity="0.9"/>
<circle cx="130" cy="130" r="4.5" fill="#D4A853" opacity="0.55"/>
<text x="122" y="135" text-anchor="middle" font-family="-apple-system,Helvetica,Arial,sans-serif" font-size="13" font-weight="700" fill="#E8C96E" opacity="0.95">N</text>
<text x="139" y="135" text-anchor="middle" font-family="-apple-system,Helvetica,Arial,sans-serif" font-size="13" font-weight="700" fill="rgba(255,255,255,0.75)">W</text>
</svg>
