<svg xmlns="http://www.w3.org/2000/svg" width="440" height="80" viewBox="0 0 440 80">
<defs>
<linearGradient id="bg" x1="0" y1="0" x2="1" y2="1"><stop offset="0%" stop-color="#2C6975"/><stop offset="100%" stop-color="#1A4F5A"/></linearGradient>
<linearGradient id="ro" x1="0" y1="0" x2="1" y2="1"><stop offset="0%" stop-color="#26C6DA"/><stop offset="100%" stop-color="#3C8CFC"/></linearGradient>
<linearGradient id="ri" x1="0" y1="0" x2="1" y2="1"><stop offset="0%" stop-color="#50C878"/><stop offset="100%" stop-color="#2E8B57"/></linearGradient>
<linearGradient id="yg" x1="0.5" y1="0" x2="0.5" y2="1"><stop offset="0%" stop-color="#26C6DA"/><stop offset="45%" stop-color="#D4A853"/><stop offset="100%" stop-color="#50C878"/></linearGradient>
</defs>
<rect x="4" y="4" width="72" height="72" rx="16" fill="url(#bg)"/>
<g transform="translate(40,37)">
<circle cx="0" cy="0" r="24" fill="none" stroke="rgba(255,255,255,0.08)" stroke-width="3.5"/>
<circle cx="0" cy="0" r="24" fill="none" stroke="url(#ro)" stroke-width="3.5" stroke-dasharray="122 30" stroke-linecap="round" transform="rotate(-130)"/>
<circle cx="0" cy="0" r="17" fill="none" stroke="rgba(255,255,255,0.08)" stroke-width="2.5"/>
<circle cx="0" cy="0" r="17" fill="none" stroke="url(#ri)" stroke-width="2.5" stroke-dasharray="85 22" stroke-linecap="round" transform="rotate(-90)"/>
<g stroke="url(#yg)" fill="none"><polygon points="0,-18 -14,10 14,10" stroke-width="0.8" opacity="0.75"/><polygon points="0,18 -14,-10 14,-10" stroke-width="0.8" opacity="0.75"/></g>
<circle cx="0" cy="0" r="5.5" fill="rgba(255,255,255,0.06)" stroke="#D4A853" stroke-width="0.4" opacity="0.7"/>
<text x="0" y="2.5" text-anchor="middle" font-family="-apple-system,Helvetica,Arial,sans-serif" font-size="5.5" font-weight="700" fill="rgba(255,255,255,0.7)">NW</text>
</g>
<polygon points="40,2 38,7 40,5 42,7" fill="#26C6DA" opacity="0.7"/>
<!-- Option C lockup: NAV dark, gold dot, teal WINS -->
<text x="96" y="38" font-family="-apple-system,Helvetica,Arial,sans-serif" font-size="28" font-weight="700" fill="#1C1C1E" letter-spacing="2">NAV</text>
<text x="152" y="38" font-family="-apple-system,Helvetica,Arial,sans-serif" font-size="28" font-weight="700" fill="#D4A853" letter-spacing="2">.</text>
<text x="163" y="38" font-family="-apple-system,Helvetica,Arial,sans-serif" font-size="28" font-weight="700" fill="#2C6975" letter-spacing="2">WINS</text>
<text x="96" y="56" font-family="-apple-system,Helvetica,Arial,sans-serif" font-size="9" fill="#888780" letter-spacing="4">TRACK · TRANSFORM · THRIVE</text>
</svg>
